<svg xmlns="http://www.w3.org/2000/svg" viewBox="0 0 200 200" fill="none">
  <!-- Background Circle -->
  <circle cx="100" cy="100" r="95" fill="url(#grad1)" opacity="0.1"/>

  <!-- Outer Ring - Vision -->
  <circle cx="100" cy="100" r="85" stroke="url(#grad1)" stroke-width="4" fill="none" opacity="0.8"/>

  <!-- Eye Shape - "See" -->
  <ellipse cx="100" cy="100" rx="55" ry="35" stroke="url(#grad2)" stroke-width="5" fill="none"/>

  <!-- Iris - with physics atom orbit -->
  <circle cx="100" cy="100" r="20" fill="url(#grad2)" opacity="0.9"/>

  <!-- Electron Orbit - Physics symbol -->
  <ellipse cx="100" cy="100" rx="32" ry="18" stroke="url(#grad1)" stroke-width="2" fill="none" transform="rotate(-30 100 100)"/>
  <ellipse cx="100" cy="100" rx="32" ry="18" stroke="url(#grad1)" stroke-width="2" fill="none" transform="rotate(30 100 100)"/>
  <ellipse cx="100" cy="100" rx="32" ry="18" stroke="url(#grad1)" stroke-width="2" fill="none" transform="rotate(90 100 100)"/>

  <!-- Electrons -->
  <circle cx="132" cy="100" r="4" fill="#3b82f6"/>
  <circle cx="78" cy="127" r="4" fill="#8b5cf6"/>
  <circle cx="78" cy="73" r="4" fill="#06b6d4"/>

  <!-- Sparkle - "I see!" moment -->
  <path d="M155 55 L160 45 L165 55 L175 60 L165 65 L160 75 L155 65 L145 60 Z" fill="url(#grad1)" opacity="0.8"/>

  <!-- Text: Scivra -->
  <text x="100" y="175" text-anchor="middle" font-family="system-ui, sans-serif" font-size="22" font-weight="700" fill="url(#grad2)">
    Scivra
  </text>

  <!-- Tagline -->
  <text x="100" y="192" text-anchor="middle" font-family="system-ui, sans-serif" font-size="10" fill="#64748b">
    See Physics. Get It.
  </text>

  <!-- Gradients -->
  <defs>
    <linearGradient id="grad1" x1="0%" y1="0%" x2="100%" y2="100%">
      <stop offset="0%" style="stop-color:#3b82f6"/>
      <stop offset="100%" style="stop-color:#8b5cf6"/>
    </linearGradient>
    <linearGradient id="grad2" x1="0%" y1="0%" x2="100%" y2="100%">
      <stop offset="0%" style="stop-color:#06b6d4"/>
      <stop offset="100%" style="stop-color:#3b82f6"/>
    </linearGradient>
  </defs>
</svg>